<?xml version="1.0" encoding="UTF-8" standalone="no"?>
<!-- Created with Inkscape (http://www.inkscape.org/) -->

<svg
   xmlns:dc="http://purl.org/dc/elements/1.1/"
   xmlns:cc="http://creativecommons.org/ns#"
   xmlns:rdf="http://www.w3.org/1999/02/22-rdf-syntax-ns#"
   xmlns:svg="http://www.w3.org/2000/svg"
   xmlns="http://www.w3.org/2000/svg"
   xmlns:sodipodi="http://sodipodi.sourceforge.net/DTD/sodipodi-0.dtd"
   xmlns:inkscape="http://www.inkscape.org/namespaces/inkscape"
   width="192.49985"
   height="216.00642"
   id="svg2"
   version="1.1"
   inkscape:version="0.48.4 r9939"
   sodipodi:docname="log4cplus.svg">
  <defs
     id="defs4" />
  <sodipodi:namedview
     id="base"
     pagecolor="#ffffff"
     bordercolor="#666666"
     borderopacity="1.0"
     inkscape:pageopacity="0.0"
     inkscape:pageshadow="2"
     inkscape:zoom="2.8"
     inkscape:cx="241.03806"
     inkscape:cy="102.50095"
     inkscape:document-units="px"
     inkscape:current-layer="text3210"
     showgrid="false"
     inkscape:window-width="1680"
     inkscape:window-height="1001"
     inkscape:window-x="0"
     inkscape:window-y="25"
     inkscape:window-maximized="1"
     fit-margin-top="0"
     fit-margin-left="0"
     fit-margin-right="0"
     fit-margin-bottom="0"
     units="mm"
     inkscape:snap-smooth-nodes="true" />
  <metadata
     id="metadata7">
    <rdf:RDF>
      <cc:Work
         rdf:about="">
        <dc:format>image/svg+xml</dc:format>
        <dc:type
           rdf:resource="http://purl.org/dc/dcmitype/StillImage" />
        <dc:title></dc:title>
      </cc:Work>
    </rdf:RDF>
  </metadata>
  <g
     inkscape:label="Layer 1"
     inkscape:groupmode="layer"
     id="layer1"
     transform="translate(-81.974238,-233.35572)">
    <g
       style="font-size:106.620224px;font-style:normal;font-variant:normal;font-weight:normal;font-stretch:normal;text-align:start;line-height:125%;letter-spacing:0px;word-spacing:0px;writing-mode:lr-tb;text-anchor:start;fill:#01407c;fill-opacity:1;stroke:none;font-family:UnPilgia;-inkscape-font-specification:UnPilgia"
       id="text3210">
      <g
         id="g3229">
        <g
           id="g3131">
          <path
             inkscape:connector-curvature="0"
             id="path3091"
             d="m 168.98521,447.48584 c -1.91685,-1.03197 -12.26019,-6.93139 -22.98519,-13.10981 -10.725,-6.17843 -27.73737,-15.95907 -37.80526,-21.73475 -10.067889,-5.77568 -19.551175,-11.54961 -21.073965,-12.83096 -4.996661,-4.20441 -5.198096,-6.51715 -5.139661,-59.01021 0.05868,-52.71422 0.02711,-52.39208 5.645724,-57.60226 1.580239,-1.46537 11.873161,-7.80964 22.873162,-14.09838 11,-6.28875 27.65,-15.86766 37,-21.28648 24.28216,-14.07279 25.09188,-14.45117 30.91948,-14.44857 5.40004,0.002 2.55622,-1.50694 64.58052,34.27615 24.6638,14.22905 26.00201,15.11698 28.74347,19.0719 l 0.70296,1.11953 1.69952,52.23771 c 0.36354,11.1741 0.80724,49.60984 -0.99981,53.69497 -1.04966,2.37292 -3.42444,5.4514 -5.2773,6.84106 -1.85286,1.38966 -14.16884,8.71604 -27.36884,16.28085 -13.2,7.5648 -31.27926,17.9665 -40.17613,23.11487 -15.3773,8.89843 -16.46446,9.36069 -22.01481,9.36069 -3.8054,0 -7.05237,-0.65341 -9.32387,-1.87631 z m 27.7999,-44.52007 c 8.5926,-2.65518 17.07103,-7.40422 23.53069,-13.16162 6.18695,-5.51434 14.18674,-15.11403 13.35232,-16.46415 -0.58637,-0.94877 -26.14538,-15.60285 -27.18233,-15.60285 -0.34273,0 -2.86157,2.30122 -5.05177,4.67731 -2.19021,2.37609 -4.84412,4.65645 -7.75274,6.26786 -4.80839,2.6639 -7.04354,4.17958 -15.68126,4.17707 -7.98157,-0.002 -9.82936,-0.81531 -13.43792,-2.73975 -6.6142,-3.52734 -12.06816,-8.2321 -15.17154,-14.52601 -2.41732,-4.90251 -2.83073,-6.96087 -2.8583,-14.23148 -0.0268,-7.05262 0.37831,-9.3033 2.37879,-13.21752 3.74418,-7.326 7.39765,-11.13039 14.26399,-14.85319 5.79267,-3.14068 7.04034,-3.42929 14.82498,-3.42929 7.79432,0 9.0283,0.2864 14.86342,3.44978 3.49989,1.89738 7.7377,5.15988 9.41737,7.25 1.67967,2.09012 3.60082,4.55783 4.1149,4.55783 1.24402,0 26.22881,-14.45655 26.9175,-15.57088 1.55236,-2.51176 -12.61135,-17.40008 -21.51865,-22.81132 -3.138,-1.90635 -8.988,-4.6712 -13,-6.1441 -6.57199,-2.41274 -8.63176,-2.67759 -20.79454,-2.67375 -11.62874,0.004 -14.40098,0.32863 -20,2.34435 -9.72882,3.5025 -16.53848,7.69808 -24.15283,14.88107 -7.5865,7.15672 -12.46825,14.48311 -16.55658,24.84762 -2.50226,6.34358 -2.7108,7.9793 -2.72445,21.3694 -0.0142,13.90277 0.11267,14.81678 3.07965,22.19098 8.89389,22.10512 26.44017,37.19032 50.55064,41.57534 5.11961,0.93111 22.65837,-0.3302 28.58866,-2.1627 z m 65.45109,-54.53541 c 0.0605,-2.58611 0.72793,-3.61296 3.51382,-3.88157 2.97542,-0.28688 3.25,-0.60371 3.25,-3.75 0,-3.24885 -0.18779,-3.43664 -3.43664,-3.43664 -3.14601,0 -3.46314,-0.27475 -3.75,-3.24881 -0.27713,-2.87315 -0.66024,-3.24894 -3.31336,-3.25 -2.64233,-10e-4 -3.03684,0.37925 -3.30896,3.18985 -0.26901,2.77845 -1.78222,3.6092 -4.57329,3.56313 -2.8395,-0.0469 -3.29423,1.03817 -3.30994,3.74379 -0.0172,2.95904 0.25377,3.71104 3.31567,3.62627 2.92017,-0.0808 3.99535,0.31178 3.99595,3.12815 5.5e-4,2.61365 1.11021,3.9458 3.50507,3.91196 3.43945,-0.0486 4.02531,0.0931 4.11168,-3.59613 z m -26.48133,0.81821 c -0.0401,-2.85772 0.18745,-4.03308 3.05828,-4.0053 2.97542,0.0288 4.07075,-0.41431 4.07075,-3.5606 0,-3.24885 -0.12465,-4.25739 -3.3735,-4.25739 -3.14629,0 -3.52626,-0.96906 -3.81314,-3.94448 -0.27718,-2.87481 -1.35417,-2.99746 -4.00784,-2.99746 -2.64203,0 -3.22627,0.75957 -3.49836,3.56985 -0.26901,2.77845 -0.72155,3.23099 -3.5,3.5 -2.79217,0.27034 -3.51825,0.70205 -3.5044,3.55896 0.0151,3.11725 -0.10468,4.13388 3.31313,4.13388 3.40574,0 3.50023,-0.72907 3.50023,2.61612 0,3.32104 0.80707,4.32075 4.06799,4.32075 3.14629,0 3.72884,0.0546 3.68686,-2.93433 z"
             style="fill:#6599d1"
             sodipodi:nodetypes="sssssssscsscssssssssssssscsssssssssssscsssssssssssscssssssssssssssssssss" />
          <path
             inkscape:connector-curvature="0"
             id="path3089"
             d="m 137.55359,429.50315 c -48.3097,-26.85482 -48.118042,-27.84553 -50.682378,-30.21831 -1.2375,-1.14505 -2.431446,-2.37657 -2.42172,-2.96819 0.01745,-1.06137 35.578778,-21.99956 37.209468,-21.90651 0.46258,0.0264 2.64106,2.57093 4.84106,5.65453 7.68945,10.7778 21.65656,20.14767 35.58658,23.87334 8.47982,2.26799 23.36835,2.26023 31.91342,-0.0166 8.85498,-2.35943 20.50696,-8.58434 27.14811,-14.5035 5.07154,-4.52019 13.73782,-15.63393 12.76829,-16.3742 -1.00527,-0.76758 -27.1205,-15.68156 -27.45927,-15.68156 -0.20734,0 -2.47564,2.24364 -5.04067,4.98586 -12.97529,13.87163 -33.78407,14.10284 -46.30932,0.51455 -2.25893,-2.45065 -4.09705,-4.80328 -4.08472,-5.22807 0.0219,-0.75536 46.12492,-27.71813 54.50218,-31.87493 4.98875,-2.47542 27.52497,-15.4613 28.9754,-16.69628 0.55,-0.4683 9.1,-5.51981 19,-11.22559 11.98907,-6.90979 18.33394,-10.04064 19,-9.37549 1.40665,1.40474 2.85382,99.23968 1.08172,103.81521 -1.83029,4.72576 -2.78891,4.86711 -4.31891,6.33295 -1.53001,1.46584 -12.45255,8.23291 -24.27232,15.03794 -11.81977,6.80503 -29.81906,17.5527 -40.54406,23.77458 -17.07913,9.90809 -20.45125,12.00129 -25.44643,11.66708 l -7.45718,-0.69256 z m 98.44643,-80.641 c 0,-3.33333 0.16667,-3.5 3.5,-3.5 3.41667,0 3.5,-0.0952 3.5,-4 0,-3.90476 -0.0833,-4 -3.5,-4 -3.33333,0 -3.5,-0.16667 -3.5,-3.5 0,-3.41667 -0.0952,-3.5 -4,-3.5 -3.90476,0 -4,0.0833 -4,3.5 0,3.33333 -0.16667,3.5 -3.5,3.5 -3.41667,0 -3.5,0.0952 -3.5,4 0,3.90476 0.0833,4 3.5,4 3.33333,0 3.5,0.16667 3.5,3.5 0,3.41667 0.0952,3.5 4,3.5 3.90476,0 4,-0.0833 4,-3.5 z m 26.5,0 c 0,-2.66667 0.38889,-3.4975 3.5,-3.94194 3.24941,-0.4642 3.18107,-0.30865 3.13878,-3.55806 -0.0414,-3.18116 -0.0164,-3.52815 -2.87537,-3.80896 -2.72712,-0.26787 -3.62852,-0.67026 -3.89639,-3.43687 -0.29092,-3.00472 -0.10057,-3.25417 -3.86702,-3.25417 -3.78188,0 -3.70142,0.1141 -3.99769,3.18687 -0.28688,2.97542 -0.91938,3.31313 -4.06567,3.31313 -3.34275,0 -3.43664,0.10928 -3.43664,4 0,3.98402 0.0156,4 3.90638,4 3.40425,0 3.42615,0.19741 3.38728,1.98506 -0.0816,3.75532 0.3889,4.90902 4.4483,4.82578 3.45088,-0.0708 3.75804,-0.56484 3.75804,-3.31084 z"
             style="fill:#004b8b"
             sodipodi:nodetypes="sssssssscssscssssssssscsssssssssssssssssssssssssss" />
          <path
             inkscape:connector-curvature="0"
             id="path3087"
             d="m 167.96653,446.8382 c -23.68679,-13.82337 -47.79194,-26.91523 -71.319896,-41.01163 -3.803963,-3.20176 -17.769602,-8.75433 -7.533935,-12.60418 10.958851,-6.70074 21.883831,-13.57765 33.423031,-19.2222 9.29747,15.02382 24.18975,27.17159 41.7657,30.73976 15.03969,2.47454 31.2877,1.42082 44.62169,-6.58943 10.00275,-6.00348 18.71604,-14.2711 25.5769,-23.69548 12.21391,7.3072 25.16055,13.62185 36.35685,22.438 -4.50652,6.40549 -12.86165,9.1243 -19.23281,13.56184 -21.37689,12.17035 -42.62551,24.60254 -64.05177,36.66306 -6.09776,2.67562 -13.66755,3.1525 -19.60576,-0.27974 z m 3.05773,-75.04766 c -7.53307,-2.12087 -15.41342,-6.35394 -19.12273,-13.44194 4.16885,-4.69536 10.67057,-6.76995 15.87022,-10.2558 3.43073,-1.97479 6.86146,-3.94958 10.29219,-5.92437 9.01654,5.12629 18.03307,10.25259 27.0496,15.37889 -7.0873,11.10906 -21.1174,17.51522 -34.08928,14.24322 z"
             style="fill:#01407c" />
        </g>
        <path
           id="path3217"
           style="line-height:125%;fill:#01407c;font-family:UnPilgia;-inkscape-font-specification:UnPilgia"
           d="m 124.03096,302.51345 c -5.89969,4.54913 -11.33732,6.8237 -16.3129,6.8237 -5.18887,0 -8.38747,-1.99025 -9.595819,-5.97073 -0.284333,-1.35052 -0.533113,-2.45226 -0.746342,-3.30523 l -0.21324,-0.85296 -0.639722,-3.09199 -0.42648,-6.71707 c -2.772134,3.55402 -6.752618,7.99652 -11.941466,13.32752 l -1.812543,-3.94494 3.305227,-3.19861 3.305227,-3.73171 6.823694,-9.38258 0.533101,-11.0885 0,-3.19861 c 0.42647,-2.48776 0.67525,-4.26476 0.746342,-5.33101 0.07107,-0.5686 0.177688,-1.35048 0.31986,-2.34564 -1.2e-5,-0.85292 0.248769,-2.38114 0.746342,-4.58467 l 1.386063,-6.71708 c 0.426466,-1.84802 1.457126,-5.11771 3.091986,-9.80906 1.3505,-3.62502 3.12751,-5.43756 5.33101,-5.43763 1.42158,7e-5 3.02088,0.60425 4.79791,1.81254 l 3.73171,2.77213 1.81254,1.70592 c 0.85293,1.06627 1.27941,2.31017 1.27945,3.73171 -4e-5,1.2795 -0.78192,4.05163 -2.34565,8.31638 -1.49271,4.4781 -3.16309,8.24534 -5.01115,11.30174 l -5.75749,9.4892 -5.33101,8.20976 c -2e-5,5.40211 0.24876,9.88016 0.74634,13.43415 0.2843,2.70105 1.3505,4.72683 3.19861,6.07735 1.77698,1.35053 3.73168,2.02579 5.86411,2.02578 3.41182,1e-5 7.28568,-1.42159 11.6216,-4.2648 l 1.49269,3.94494 m -10.76865,-57.68154 c -3e-5,-1.84802 -1.03069,-3.30516 -3.09198,-4.37143 l -1.06621,-0.42648 c -0.7819,7e-5 -1.27946,0.35547 -1.49268,1.0662 l -1.27944,3.73171 c -1.77702,5.11783 -3.05647,9.84465 -3.83833,14.18049 -0.92406,4.83349 -1.38608,9.88018 -1.38606,15.14007 l 2.77212,-4.79791 3.09199,-5.97073 2.6655,-6.07735 1.06621,-2.87875 1.0662,-3.1986 1.27944,-4.26481 0.21324,-2.13241" />
        <path
           id="path3219"
           style="line-height:125%;fill:#01407c;font-family:UnPilgia;-inkscape-font-specification:UnPilgia"
           d="m 158.57591,270.52739 c 0.28428,6.82372 -0.74638,13.86065 -3.09199,21.1108 -1.99027,6.18398 -3.98051,10.48433 -5.97073,12.90105 -1.49271,1.91916 -3.02093,3.34076 -4.58467,4.26481 -1.42162,0.92404 -2.94985,1.38606 -4.58467,1.38606 -3.41186,0 -6.21952,-1.52823 -8.423,-4.58467 -2.55889,-3.41184 -3.87387,-7.14355 -3.94495,-11.19512 l -0.10662,-2.87875 c -0.0711,-4.33587 0.56864,-8.52959 1.91917,-12.58119 2.13239,-5.89961 4.86898,-11.08846 8.20975,-15.56655 2.20347,-2.91424 4.65574,-4.86894 7.3568,-5.86411 l 0.74634,-0.10662 0.85296,0 1.5993,0.42648 2.23903,1.17282 c 0.6397,0.42653 0.95956,0.99517 0.95958,1.70593 l -0.31986,1.17282 -0.63972,1.17282 -0.74634,0.95958 -0.85296,0.74634 -0.74635,0.31987 -1.17282,-0.31987 -0.85296,-0.42648 -0.95958,-0.10662 c -2.62998,5e-5 -5.18887,3.37635 -7.67666,10.12892 -0.99513,2.63 -1.67039,5.08226 -2.02578,7.3568 l -0.85296,5.54425 -0.10662,2.23903 c -1e-5,0.42649 -0.0356,0.88851 -0.10662,1.38606 -1e-5,0.4265 -1e-5,0.56866 0,0.42648 l 0,2.34565 c -1e-5,0.99513 0.31985,2.52335 0.95958,4.58467 0.14215,0.56864 0.46201,1.38606 0.95958,2.45226 0.78187,1.63485 2.20347,2.45227 4.26481,2.45227 3.98047,0 7.17907,-3.98049 9.59582,-11.94147 0.71077,-2.20347 1.06618,-4.90451 1.0662,-8.10314 -2e-5,-2.70102 -0.24881,-5.04666 -0.74634,-7.03693 -0.63975,-2.55885 -0.95961,-4.51356 -0.95958,-5.86411 -3e-5,-2.27453 1.06617,-4.37139 3.1986,-6.2906 1.20834,-1.13724 2.34562,-1.74142 3.41185,-1.81254 1.06617,4e-5 1.67035,0.74638 1.81255,2.23902 l 0.31986,6.18398" />
        <path
           id="path3221"
           style="line-height:125%;fill:#01407c;font-family:UnPilgia;-inkscape-font-specification:UnPilgia"
           d="m 199.30483,261.89115 c -3e-5,0.28436 -0.17773,0.88854 -0.5331,1.81254 l -1.27944,1.59931 -1.38607,1.5993 -1.38606,0.5331 c -0.63975,4e-5 -1.10177,-0.14212 -1.38606,-0.42648 l -1.59931,-0.95958 -0.63972,-0.5331 -0.74634,-0.5331 c -1.13731,-0.63968 -2.31013,-0.95954 -3.51847,-0.95959 -1.20838,5e-5 -2.45228,0.31991 -3.7317,0.95959 -2.77215,1.77704 -4.62023,4.407 -5.54426,7.88989 l -1.81254,6.61046 -0.85296,3.83832 -0.42648,5.86412 c -0.14217,2.06134 0.28431,4.37144 1.27944,6.93031 0.85295,2.06133 2.45225,3.09199 4.79791,3.09199 2.98535,0 5.43761,-1.99024 7.3568,-5.97074 1.20833,-2.41671 1.95468,-4.65573 2.23902,-6.71707 l 1.0662,-6.82369 0.63972,-8.84948 7.3568,-0.63972 c -0.92408,3.05648 -1.63488,6.184 -2.13241,9.38258 -0.56867,3.55403 -0.88853,6.57493 -0.95958,9.06271 l -0.21324,18.23206 c -3e-5,8.24529 -1.17285,13.78954 -3.51847,16.63276 -1.63486,1.84806 -3.87389,3.3052 -6.71707,4.37143 -2.84322,1.06618 -5.86413,1.59928 -9.06272,1.5993 -4.76237,-2e-5 -8.20976,-1.10176 -10.34216,-3.30523 -0.28432,-0.21326 -0.49756,-0.92406 -0.63972,-2.1324 l 0.21324,-2.45227 0.95958,-3.62508 0.95958,-2.87875 0.63972,-2.34564 3.19861,0.5331 -0.63972,4.26481 -0.31986,3.30522 c 5.11776,1.35051 8.885,2.02577 11.30174,2.02579 2.27455,-2e-5 4.05155,-0.53312 5.33101,-1.59931 1.3505,-1.06621 2.23901,-2.59443 2.66551,-4.58467 0.2843,-1.49269 0.49754,-4.69129 0.63972,-9.59582 l 0.21324,-11.51498 -4.90453,5.86411 c -1.63486,1.63485 -2.94984,2.70105 -3.94495,3.19861 l -2.6655,0.95958 -2.02579,0.21324 c -2.91429,0 -5.08223,-1.2439 -6.50383,-3.73171 -1.42161,-2.70104 -2.13241,-6.18396 -2.1324,-10.44878 -1e-5,-2.70103 0.42647,-6.07733 1.27944,-10.12892 0.21323,-1.06618 0.63971,-2.70102 1.27944,-4.90453 l 2.34565,-5.97073 c 0.71079,-1.99021 2.45225,-4.83341 5.22439,-8.52962 2.27455,-3.12748 5.65085,-4.69124 10.12892,-4.69129 l 1.17282,0.10662 c 1.77698,5e-5 3.3052,0.24883 4.58467,0.74634 3.12749,1.06625 4.69126,2.27461 4.69129,3.62509" />
        <path
           id="path3223"
           style="line-height:125%;fill:#01407c;font-family:UnPilgia;-inkscape-font-specification:UnPilgia"
           d="m 239.07417,280.76293 -0.10662,1.17282 -0.10662,0.42648 -0.10662,0.31986 c -3e-5,2.06135 -0.92407,3.48295 -2.77213,4.26481 l -2.6655,0.95958 -2.45227,0.63972 -0.21324,5.54426 -0.21324,5.33101 -0.31986,4.15819 c -0.0711,1.35052 -0.31988,2.27456 -0.74634,2.77212 -0.49758,0.7108 -1.20838,1.17282 -2.1324,1.38606 l -0.95959,0.21325 c -1.1373,-1e-5 -1.88364,-0.63973 -2.23902,-1.91917 l -0.31986,-2.77212 0.10662,-2.87875 0.21324,-2.66551 0.95958,-7.25017 -8.9561,2.6655 -2.6655,0.42649 c -1.63485,10e-6 -3.02091,-0.74633 -4.15819,-2.23903 -0.99513,-1.42159 -1.49269,-2.98535 -1.49268,-4.69129 -1e-5,-0.92402 0.0355,-1.49266 0.10662,-1.70592 l 0.85296,-2.02579 5.75749,-9.38258 3.41185,-5.97073 3.51846,-6.50383 c 1.70591,-3.19856 5.47315,-10.91075 11.30175,-23.13659 l 4.58467,1.81254 c 0.28429,0.0712 0.49753,0.67533 0.63972,1.81255 l -6.39721,39.76934 1.81254,-0.63972 2.45226,-0.95958 1.91917,-0.31986 0.42648,0 0.42648,0.21324 c 0.35537,0.49758 0.53307,0.88852 0.5331,1.17282 m -8.31638,-27.18816 -1.27944,-0.85296 -3.19861,6.82369 -6.39721,12.79443 -3.19861,5.11777 -2.87874,5.22439 -0.31986,1.91917 c -1e-5,0.56866 0.0711,0.99514 0.21324,1.27944 l 0.74634,0.31986 1.38606,-0.31986 1.38607,-0.42648 8.74285,-2.55889 1.38607,-10.23554 1.70592,-9.91568 1.70592,-9.16934" />
      </g>
    </g>
  </g>
</svg>
